<svg xmlns="http://www.w3.org/2000/svg" viewBox="0 0 800 400" fill="none">
  <rect width="800" height="400" rx="12" fill="#0f172a"/>
  <rect x="24" y="24" width="752" height="32" rx="6" fill="#1e293b"/>
  <circle cx="44" cy="40" r="6" fill="#ef4444"/>
  <circle cx="64" cy="40" r="6" fill="#eab308"/>
  <circle cx="84" cy="40" r="6" fill="#22c55e"/>
  <text x="400" y="45" text-anchor="middle" fill="#64748b" font-family="monospace" font-size="13">SRE Dashboard — SLO Status</text>
  <!-- SLO bars -->
  <text x="40" y="96" fill="#94a3b8" font-family="sans-serif" font-size="12">gateway_availability</text>
  <rect x="220" y="82" width="520" height="18" rx="4" fill="#1e293b"/>
  <rect x="220" y="82" width="518" height="18" rx="4" fill="#22c55e" opacity="0.8"/>
  <text x="748" y="96" text-anchor="end" fill="#f8fafc" font-family="monospace" font-size="11">99.97%</text>
  <text x="40" y="130" fill="#94a3b8" font-family="sans-serif" font-size="12">ollama_availability</text>
  <rect x="220" y="116" width="520" height="18" rx="4" fill="#1e293b"/>
  <rect x="220" y="116" width="510" height="18" rx="4" fill="#22c55e" opacity="0.8"/>
  <text x="748" y="130" text-anchor="end" fill="#f8fafc" font-family="monospace" font-size="11">99.52%</text>
  <text x="40" y="164" fill="#94a3b8" font-family="sans-serif" font-size="12">dashboard_availability</text>
  <rect x="220" y="150" width="520" height="18" rx="4" fill="#1e293b"/>
  <rect x="220" y="150" width="505" height="18" rx="4" fill="#eab308" opacity="0.7"/>
  <text x="748" y="164" text-anchor="end" fill="#f8fafc" font-family="monospace" font-size="11">99.12%</text>
  <!-- Burn rate section -->
  <text x="40" y="210" fill="#cbd5e1" font-family="sans-serif" font-size="13" font-weight="bold">Burn Rate (24h window)</text>
  <rect x="40" y="224" width="160" height="80" rx="8" fill="#1e293b"/>
  <text x="120" y="260" text-anchor="middle" fill="#22c55e" font-family="monospace" font-size="24" font-weight="bold">0.3x</text>
  <text x="120" y="290" text-anchor="middle" fill="#64748b" font-family="sans-serif" font-size="11">gateway</text>
  <rect x="220" y="224" width="160" height="80" rx="8" fill="#1e293b"/>
  <text x="300" y="260" text-anchor="middle" fill="#22c55e" font-family="monospace" font-size="24" font-weight="bold">1.1x</text>
  <text x="300" y="290" text-anchor="middle" fill="#64748b" font-family="sans-serif" font-size="11">ollama</text>
  <rect x="400" y="224" width="160" height="80" rx="8" fill="#1e293b"/>
  <text x="480" y="260" text-anchor="middle" fill="#eab308" font-family="monospace" font-size="24" font-weight="bold">1.8x</text>
  <text x="480" y="290" text-anchor="middle" fill="#64748b" font-family="sans-serif" font-size="11">dashboard</text>
  <!-- Incident count -->
  <rect x="580" y="224" width="180" height="80" rx="8" fill="#1e293b"/>
  <text x="670" y="256" text-anchor="middle" fill="#f8fafc" font-family="monospace" font-size="28" font-weight="bold">0</text>
  <text x="670" y="276" text-anchor="middle" fill="#22c55e" font-family="sans-serif" font-size="11">active incidents</text>
  <text x="670" y="294" text-anchor="middle" fill="#64748b" font-family="sans-serif" font-size="10">TTR avg: 13m</text>
  <!-- Footer -->
  <text x="40" y="360" fill="#475569" font-family="monospace" font-size="10">Last evaluated: 2026-03-05T06:00:00Z · 38 tests passing · Error budget: 87% remaining (28d)</text>
  <text x="40" y="380" fill="#334155" font-family="monospace" font-size="10">Redacted sample (structure accurate; sensitive values removed).</text>
</svg>
